# xmcd
#
# Track frame offsets: 
#        150
#        38123
#        51508
#        76813
#        91101
#        102861
#        114417
#        129715
#        145975
#        178428
#        209488
#        237928
#        253366
#        270510
#
# Disc length: 3796 seconds
#
# Revision: 0
# Processed by: cddbd v1.5.2PL0 Copyright (c) Steve Scherf et al.
# Submitted via: ExactAudioCopy v0.99pb5
#
DISCID=cd0ed20e
DTITLE=Various Artist - Verano Mix 98 [Disc 2]
DYEAR=1900
DGENRE=Alt. Rock
TTITLE0=Here's Where the Story Ends
TTITLE1=Move Your Body
TTITLE2=Knockin' 2000
TTITLE3=I'll Be There for You
TTITLE4=Oie Mama
TTITLE5=Water Verve
TTITLE6=5, 6, 7, 8
TTITLE7=No Tengo Dinero
TTITLE8=So Close
TTITLE9=Dr in the House
TTITLE10=Make It Real (Dance Remix)
TTITLE11=Vacilon
TTITLE12=Prego
TTITLE13=Ana (Dance Version)
EXTD=
EXTT0=
EXTT1=
EXTT2=
EXTT3=
EXTT4=
EXTT5=
EXTT6=
EXTT7=
EXTT8=
EXTT9=
EXTT10=
EXTT11=
EXTT12=
EXTT13=
PLAYORDER=
